<svg width="120" height="83" viewBox="0 0 120 83" fill="none" xmlns="http://www.w3.org/2000/svg">
<g id="frame-1" clip-path="url(#clip0_1_2)">
<!-- <g id="logo-blue">
<path d="M119.982 81.6533L104.773 1.16105C104.679 0.494006 104.111 -0.00313159 103.442 1.4852e-05H88.0266C87.3577 1.4852e-05 86.7889 0.497153 86.6951 1.16105L78.8844 42.5053C78.6719 43.638 77.0622 43.638 76.8466 42.5053L69.0359 1.16105C68.9421 0.494006 68.3733 -0.00313159 67.7044 1.4852e-05H52.2893C51.6205 1.4852e-05 51.0516 0.497153 50.9579 1.16105L43.1597 42.4266C42.944 43.5751 41.3094 43.5751 41.0937 42.4266L33.2987 1.16105C33.2049 0.494006 32.636 -0.00313159 31.9672 1.4852e-05H16.549C15.8801 1.4852e-05 15.3113 0.497153 15.2175 1.16105L0.0118286 81.6533C-0.0881882 82.3644 0.458778 83 1.1714 83H14.9143C15.4925 83 15.9833 82.5752 16.0708 82.0026L23.1407 42.5619C23.2407 41.9106 23.7471 41.5834 24.2596 41.5677C24.7722 41.5834 25.2786 41.9106 25.3786 42.5619L32.4485 82.0026C32.536 82.5784 33.0299 83 33.605 83H50.6547C51.2329 83 51.7236 82.5752 51.8111 82.0026L58.8811 42.5619C58.9811 41.9106 59.4874 41.5834 60 41.5677C60.5126 41.5834 61.0189 41.9106 61.1189 42.5619L68.1889 82.0026C68.2764 82.5784 68.7702 83 69.3453 83H86.3951C86.9733 83 87.464 82.5752 87.5515 82.0026L94.6214 42.5619C94.7214 41.9106 95.2278 41.5834 95.7404 41.5677C96.2529 41.5834 96.7593 41.9106 96.8593 42.5619L103.929 82.0026C104.017 82.5784 104.511 83 105.086 83H118.829C119.541 83 120.088 82.3644 119.988 81.6533H119.982Z" fill="#0C00EC"/>
<path d="M119.982 81.6533L104.773 1.16105C104.679 0.494006 104.111 -0.00313159 103.442 1.4852e-05H88.0266C87.3577 1.4852e-05 86.7889 0.497153 86.6951 1.16105L78.8844 42.5053C78.6719 43.638 77.0622 43.638 76.8466 42.5053L69.0359 1.16105C68.9421 0.494006 68.3733 -0.00313159 67.7044 1.4852e-05H52.2893C51.6205 1.4852e-05 51.0516 0.497153 50.9579 1.16105L43.1597 42.4266C42.944 43.5751 41.3094 43.5751 41.0937 42.4266L33.2987 1.16105C33.2049 0.494006 32.636 -0.00313159 31.9672 1.4852e-05H16.549C15.8801 1.4852e-05 15.3113 0.497153 15.2175 1.16105L0.0118286 81.6533C-0.0881882 82.3644 0.458778 83 1.1714 83H14.9143C15.4925 83 15.9833 82.5752 16.0708 82.0026L23.1407 42.5619C23.2407 41.9106 23.7471 41.5834 24.2596 41.5677C24.7722 41.5834 25.2786 41.9106 25.3786 42.5619L32.4485 82.0026C32.536 82.5784 33.0299 83 33.605 83H50.6547C51.2329 83 51.7236 82.5752 51.8111 82.0026L58.8811 42.5619C58.9811 41.9106 59.4874 41.5834 60 41.5677C60.5126 41.5834 61.0189 41.9106 61.1189 42.5619L68.1889 82.0026C68.2764 82.5784 68.7702 83 69.3453 83H86.3951C86.9733 83 87.464 82.5752 87.5515 82.0026L94.6214 42.5619C94.7214 41.9106 95.2278 41.5834 95.7404 41.5677C96.2529 41.5834 96.7593 41.9106 96.8593 42.5619L103.929 82.0026C104.017 82.5784 104.511 83 105.086 83H118.829C119.541 83 120.088 82.3644 119.988 81.6533H119.982Z" fill="#0C00EC"/>
<path d="M119.982 81.6533L104.773 1.16105C104.679 0.494006 104.111 -0.00313159 103.442 1.4852e-05H88.0266C87.3577 1.4852e-05 86.7889 0.497153 86.6951 1.16105L78.8844 42.5053C78.6719 43.638 77.0622 43.638 76.8466 42.5053L69.0359 1.16105C68.9421 0.494006 68.3733 -0.00313159 67.7044 1.4852e-05H52.2893C51.6205 1.4852e-05 51.0516 0.497153 50.9579 1.16105L43.1597 42.4266C42.944 43.5751 41.3094 43.5751 41.0937 42.4266L33.2987 1.16105C33.2049 0.494006 32.636 -0.00313159 31.9672 1.4852e-05H16.549C15.8801 1.4852e-05 15.3113 0.497153 15.2175 1.16105L0.0118286 81.6533C-0.0881882 82.3644 0.458778 83 1.1714 83H14.9143C15.4925 83 15.9833 82.5752 16.0708 82.0026L23.1407 42.5619C23.2407 41.9106 23.7471 41.5834 24.2596 41.5677C24.7722 41.5834 25.2786 41.9106 25.3786 42.5619L32.4485 82.0026C32.536 82.5784 33.0299 83 33.605 83H50.6547C51.2329 83 51.7236 82.5752 51.8111 82.0026L58.8811 42.5619C58.9811 41.9106 59.4874 41.5834 60 41.5677C60.5126 41.5834 61.0189 41.9106 61.1189 42.5619L68.1889 82.0026C68.2764 82.5784 68.7702 83 69.3453 83H86.3951C86.9733 83 87.464 82.5752 87.5515 82.0026L94.6214 42.5619C94.7214 41.9106 95.2278 41.5834 95.7404 41.5677C96.2529 41.5834 96.7593 41.9106 96.8593 42.5619L103.929 82.0026C104.017 82.5784 104.511 83 105.086 83H118.829C119.541 83 120.088 82.3644 119.988 81.6533H119.982Z" fill="#0C00EC"/>
<path d="M119.982 81.6533L104.773 1.16105C104.679 0.494006 104.111 -0.00313159 103.442 1.4852e-05H88.0266C87.3577 1.4852e-05 86.7889 0.497153 86.6951 1.16105L78.8844 42.5053C78.6719 43.638 77.0622 43.638 76.8466 42.5053L69.0359 1.16105C68.9421 0.494006 68.3733 -0.00313159 67.7044 1.4852e-05H52.2893C51.6205 1.4852e-05 51.0516 0.497153 50.9579 1.16105L43.1597 42.4266C42.944 43.5751 41.3094 43.5751 41.0937 42.4266L33.2987 1.16105C33.2049 0.494006 32.636 -0.00313159 31.9672 1.4852e-05H16.549C15.8801 1.4852e-05 15.3113 0.497153 15.2175 1.16105L0.0118286 81.6533C-0.0881882 82.3644 0.458778 83 1.1714 83H14.9143C15.4925 83 15.9833 82.5752 16.0708 82.0026L23.1407 42.5619C23.2407 41.9106 23.7471 41.5834 24.2596 41.5677C24.7722 41.5834 25.2786 41.9106 25.3786 42.5619L32.4485 82.0026C32.536 82.5784 33.0299 83 33.605 83H50.6547C51.2329 83 51.7236 82.5752 51.8111 82.0026L58.8811 42.5619C58.9811 41.9106 59.4874 41.5834 60 41.5677C60.5126 41.5834 61.0189 41.9106 61.1189 42.5619L68.1889 82.0026C68.2764 82.5784 68.7702 83 69.3453 83H86.3951C86.9733 83 87.464 82.5752 87.5515 82.0026L94.6214 42.5619C94.7214 41.9106 95.2278 41.5834 95.7404 41.5677C96.2529 41.5834 96.7593 41.9106 96.8593 42.5619L103.929 82.0026C104.017 82.5784 104.511 83 105.086 83H118.829C119.541 83 120.088 82.3644 119.988 81.6533H119.982Z" fill="#0C00EC"/>
<path d="M119.982 81.6533L104.773 1.16105C104.679 0.494006 104.111 -0.00313159 103.442 1.4852e-05H88.0266C87.3577 1.4852e-05 86.7889 0.497153 86.6951 1.16105L78.8844 42.5053C78.6719 43.638 77.0622 43.638 76.8466 42.5053L69.0359 1.16105C68.9421 0.494006 68.3733 -0.00313159 67.7044 1.4852e-05H52.2893C51.6205 1.4852e-05 51.0516 0.497153 50.9579 1.16105L43.1597 42.4266C42.944 43.5751 41.3094 43.5751 41.0937 42.4266L33.2987 1.16105C33.2049 0.494006 32.636 -0.00313159 31.9672 1.4852e-05H16.549C15.8801 1.4852e-05 15.3113 0.497153 15.2175 1.16105L0.0118286 81.6533C-0.0881882 82.3644 0.458778 83 1.1714 83H14.9143C15.4925 83 15.9833 82.5752 16.0708 82.0026L23.1407 42.5619C23.2407 41.9106 23.7471 41.5834 24.2596 41.5677C24.7722 41.5834 25.2786 41.9106 25.3786 42.5619L32.4485 82.0026C32.536 82.5784 33.0299 83 33.605 83H50.6547C51.2329 83 51.7236 82.5752 51.8111 82.0026L58.8811 42.5619C58.9811 41.9106 59.4874 41.5834 60 41.5677C60.5126 41.5834 61.0189 41.9106 61.1189 42.5619L68.1889 82.0026C68.2764 82.5784 68.7702 83 69.3453 83H86.3951C86.9733 83 87.464 82.5752 87.5515 82.0026L94.6214 42.5619C94.7214 41.9106 95.2278 41.5834 95.7404 41.5677C96.2529 41.5834 96.7593 41.9106 96.8593 42.5619L103.929 82.0026C104.017 82.5784 104.511 83 105.086 83H118.829C119.541 83 120.088 82.3644 119.988 81.6533H119.982Z" fill="#0C00EC"/>
<path d="M119.982 81.6533L104.773 1.16105C104.679 0.494006 104.111 -0.00313159 103.442 1.4852e-05H88.0266C87.3577 1.4852e-05 86.7889 0.497153 86.6951 1.16105L78.8844 42.5053C78.6719 43.638 77.0622 43.638 76.8466 42.5053L69.0359 1.16105C68.9421 0.494006 68.3733 -0.00313159 67.7044 1.4852e-05H52.2893C51.6205 1.4852e-05 51.0516 0.497153 50.9579 1.16105L43.1597 42.4266C42.944 43.5751 41.3094 43.5751 41.0937 42.4266L33.2987 1.16105C33.2049 0.494006 32.636 -0.00313159 31.9672 1.4852e-05H16.549C15.8801 1.4852e-05 15.3113 0.497153 15.2175 1.16105L0.0118286 81.6533C-0.0881882 82.3644 0.458778 83 1.1714 83H14.9143C15.4925 83 15.9833 82.5752 16.0708 82.0026L23.1407 42.5619C23.2407 41.9106 23.7471 41.5834 24.2596 41.5677C24.7722 41.5834 25.2786 41.9106 25.3786 42.5619L32.4485 82.0026C32.536 82.5784 33.0299 83 33.605 83H50.6547C51.2329 83 51.7236 82.5752 51.8111 82.0026L58.8811 42.5619C58.9811 41.9106 59.4874 41.5834 60 41.5677C60.5126 41.5834 61.0189 41.9106 61.1189 42.5619L68.1889 82.0026C68.2764 82.5784 68.7702 83 69.3453 83H86.3951C86.9733 83 87.464 82.5752 87.5515 82.0026L94.6214 42.5619C94.7214 41.9106 95.2278 41.5834 95.7404 41.5677C96.2529 41.5834 96.7593 41.9106 96.8593 42.5619L103.929 82.0026C104.017 82.5784 104.511 83 105.086 83H118.829C119.541 83 120.088 82.3644 119.988 81.6533H119.982Z" fill="#0C00EC"/>
</g> -->
<g id="logo-white">
<path d="M119.982 81.6533L104.773 1.16105C104.679 0.494006 104.111 -0.00313159 103.442 1.4852e-05H88.0266C87.3577 1.4852e-05 86.7889 0.497153 86.6951 1.16105L78.8844 42.5053C78.6719 43.638 77.0622 43.638 76.8466 42.5053L69.0359 1.16105C68.9421 0.494006 68.3733 -0.00313159 67.7044 1.4852e-05H52.2893C51.6205 1.4852e-05 51.0516 0.497153 50.9579 1.16105L43.1597 42.4266C42.944 43.5751 41.3094 43.5751 41.0937 42.4266L33.2987 1.16105C33.2049 0.494006 32.636 -0.00313159 31.9672 1.4852e-05H16.549C15.8801 1.4852e-05 15.3113 0.497153 15.2175 1.16105L0.0118286 81.6533C-0.0881882 82.3644 0.458778 83 1.1714 83H14.9143C15.4925 83 15.9833 82.5752 16.0708 82.0026L23.1407 42.5619C23.2407 41.9106 23.7471 41.5834 24.2596 41.5677C24.7722 41.5834 25.2786 41.9106 25.3786 42.5619L32.4485 82.0026C32.536 82.5784 33.0299 83 33.605 83H50.6547C51.2329 83 51.7236 82.5752 51.8111 82.0026L58.8811 42.5619C58.9811 41.9106 59.4874 41.5834 60 41.5677C60.5126 41.5834 61.0189 41.9106 61.1189 42.5619L68.1889 82.0026C68.2764 82.5784 68.7702 83 69.3453 83H86.3951C86.9733 83 87.464 82.5752 87.5515 82.0026L94.6214 42.5619C94.7214 41.9106 95.2278 41.5834 95.7404 41.5677C96.2529 41.5834 96.7593 41.9106 96.8593 42.5619L103.929 82.0026C104.017 82.5784 104.511 83 105.086 83H118.829C119.541 83 120.088 82.3644 119.988 81.6533H119.982Z" fill="#F5F5F5"/>
<path d="M119.982 81.6533L104.773 1.16105C104.679 0.494006 104.111 -0.00313159 103.442 1.4852e-05H88.0266C87.3577 1.4852e-05 86.7889 0.497153 86.6951 1.16105L78.8844 42.5053C78.6719 43.638 77.0622 43.638 76.8466 42.5053L69.0359 1.16105C68.9421 0.494006 68.3733 -0.00313159 67.7044 1.4852e-05H52.2893C51.6205 1.4852e-05 51.0516 0.497153 50.9579 1.16105L43.1597 42.4266C42.944 43.5751 41.3094 43.5751 41.0937 42.4266L33.2987 1.16105C33.2049 0.494006 32.636 -0.00313159 31.9672 1.4852e-05H16.549C15.8801 1.4852e-05 15.3113 0.497153 15.2175 1.16105L0.0118286 81.6533C-0.0881882 82.3644 0.458778 83 1.1714 83H14.9143C15.4925 83 15.9833 82.5752 16.0708 82.0026L23.1407 42.5619C23.2407 41.9106 23.7471 41.5834 24.2596 41.5677C24.7722 41.5834 25.2786 41.9106 25.3786 42.5619L32.4485 82.0026C32.536 82.5784 33.0299 83 33.605 83H50.6547C51.2329 83 51.7236 82.5752 51.8111 82.0026L58.8811 42.5619C58.9811 41.9106 59.4874 41.5834 60 41.5677C60.5126 41.5834 61.0189 41.9106 61.1189 42.5619L68.1889 82.0026C68.2764 82.5784 68.7702 83 69.3453 83H86.3951C86.9733 83 87.464 82.5752 87.5515 82.0026L94.6214 42.5619C94.7214 41.9106 95.2278 41.5834 95.7404 41.5677C96.2529 41.5834 96.7593 41.9106 96.8593 42.5619L103.929 82.0026C104.017 82.5784 104.511 83 105.086 83H118.829C119.541 83 120.088 82.3644 119.988 81.6533H119.982Z" fill="#F5F5F5"/>
</g>
</g>
<defs>
<clipPath id="clip0_1_2">
<rect width="120" height="83" fill="white"/>
</clipPath>
</defs>
</svg>
